HIERARCHY
ROOT Hips
{
	OFFSET -0.001795 -0.223333 0.028219
	CHANNELS 6 Xposition Yposition Zposition Zrotation Yrotation Xrotation 
	JOINT LeftUpLeg
	{
		OFFSET 0.069520 -0.091406 -0.006815
		CHANNELS 3 Zrotation Yrotation Xrotation
		JOINT LeftLeg
		{
			OFFSET 0.034277 -0.375199 -0.004496
			CHANNELS 3 Zrotation Yrotation Xrotation
			JOINT LeftFoot
			{
				OFFSET -0.013596 -0.397961 -0.043693
				CHANNELS 3 Zrotation Yrotation Xrotation
				JOINT LeftToe
				{
					OFFSET 0.026358 -0.055791 0.119288
					CHANNELS 3 Zrotation Yrotation Xrotation
					End Site
					{
						OFFSET 0.000000 0.000000 0.000000
					}
				}
			}
		}
	}
	JOINT RightUpLeg
	{
		OFFSET -0.067670 -0.090522 -0.004320
		CHANNELS 3 Zrotation Yrotation Xrotation
		JOINT RightLeg
		{
			OFFSET -0.038290 -0.382569 -0.008850
			CHANNELS 3 Zrotation Yrotation Xrotation
			JOINT RightFoot
			{
				OFFSET 0.015774 -0.398415 -0.042312
				CHANNELS 3 Zrotation Yrotation Xrotation
				JOINT RightToe
				{
					OFFSET -0.025372 -0.048144 0.123348
					CHANNELS 3 Zrotation Yrotation Xrotation
					End Site
					{
						OFFSET 0.000000 0.000000 0.000000
					}
				}
			}
		}
	}
	JOINT Spine
	{
		OFFSET -0.002533 0.108963 -0.026696
		CHANNELS 3 Zrotation Yrotation Xrotation
		JOINT Spine1
		{
			OFFSET 0.005487 0.135180 0.001092
			CHANNELS 3 Zrotation Yrotation Xrotation
			JOINT Spine2
			{
				OFFSET 0.001457 0.052922 0.025425
				CHANNELS 3 Zrotation Yrotation Xrotation
				JOINT Neck
				{
					OFFSET -0.002778 0.213870 -0.042857
					CHANNELS 3 Zrotation Yrotation Xrotation
					JOINT Head
					{
						OFFSET 0.005152 0.064970 0.051349
						CHANNELS 3 Zrotation Yrotation Xrotation
						End Site
						{
							OFFSET 0.000000 0.000000 0.000000
						}
					}
				}
				JOINT LeftShoulder
				{
					OFFSET 0.078845 0.121749 -0.034090
					CHANNELS 3 Zrotation Yrotation Xrotation
					JOINT LeftArm
					{
						OFFSET 0.090977 0.030469 -0.008868
						CHANNELS 3 Zrotation Yrotation Xrotation
						JOINT LeftForeArm
						{
							OFFSET 0.259612 -0.012772 -0.027456
							CHANNELS 3 Zrotation Yrotation Xrotation
							JOINT LeftHand
							{
								OFFSET 0.249234 0.008986 -0.001171
								CHANNELS 3 Zrotation Yrotation Xrotation
								End Site
								{
									OFFSET 0.000000 0.000000 0.000000
								}
							}
						}
					}
				}
				JOINT RightShoulder
				{
					OFFSET -0.081759 0.118833 -0.038615
					CHANNELS 3 Zrotation Yrotation Xrotation
					JOINT RightArm
					{
						OFFSET -0.096012 0.032551 -0.009143
						CHANNELS 3 Zrotation Yrotation Xrotation
						JOINT RightForeArm
						{
							OFFSET -0.253742 -0.013329 -0.021401
							CHANNELS 3 Zrotation Yrotation Xrotation
							JOINT RightHand
							{
								OFFSET -0.255298 0.007772 -0.005559
								CHANNELS 3 Zrotation Yrotation Xrotation
								End Site
								{
									OFFSET 0.000000 0.000000 0.000000
								}
							}
						}
					}
				}
			}
		}
	}
}
MOTION
Frames: 17
Frame Time: 0.050000
0.000000 0.939541 0.000000 3.738105 20.208199 9.097507 6.879250 -0.794312 -8.308992 -3.420623 0.174157 1.555433 23.915045 33.230910 38.231375 0.000000 0.000000 0.000000 -9.306106 -0.844444 -23.430173 2.337871 -0.716212 14.670712 9.083013 14.750023 11.704260 0.000000 0.000000 0.000000 13.196414 -8.113546 32.100997 -2.569174 1.638106 -19.198882 4.263127 1.296670 21.763431 17.273022 -11.063079 -12.168821 0.000000 0.000000 0.000000 0.120317 -22.589327 7.455820 -35.283712 -11.376867 -2.418985 -59.124380 -62.436309 37.516725 0.000000 0.000000 0.000000 20.645147 18.126385 12.680727 40.370897 49.427708 10.721654 10.814451 42.712432 7.244436 0.000000 0.000000 0.000000 
0.000351 0.939416 0.000119 3.850137 20.751734 9.653732 6.806229 -0.864184 -9.382949 -3.343500 0.164236 1.658407 24.740416 33.552727 40.006905 0.000000 0.000000 0.000000 -9.496041 -0.995484 -24.203074 3.404539 -1.087890 15.408175 7.290666 11.705698 11.182048 0.000000 0.000000 0.000000 12.936436 -8.132145 32.234027 -0.603508 1.126359 -18.787013 3.454690 2.419483 21.308477 16.353372 -10.627201 -10.785140 0.000000 0.000000 0.000000 0.998430 -21.182957 6.907036 -34.738178 -10.670428 -2.553161 -65.460225 -63.888695 42.477327 0.000000 0.000000 0.000000 22.390645 17.258143 13.069833 41.720135 49.884812 11.384401 12.378760 48.224894 9.438968 0.000000 0.000000 0.000000 
0.000488 0.938097 -0.000006 3.075418 19.123389 9.144707 7.495073 -0.808055 -8.709314 -3.570650 0.193601 1.842576 25.650416 34.216331 39.898476 0.000000 0.000000 0.000000 -8.725708 -0.682424 -24.691663 2.979288 -0.972331 16.762559 8.269582 14.043704 9.989742 0.000000 0.000000 0.000000 12.579514 -8.333899 34.082141 -1.739845 1.390781 -20.706790 5.959950 2.373292 21.737901 15.750899 -9.925649 -11.806523 0.000000 0.000000 0.000000 2.084052 -19.420044 6.373400 -36.937459 -11.911990 -2.501802 -66.442538 -62.500184 42.656340 0.000000 0.000000 0.000000 19.902367 16.105241 11.277039 45.527857 48.790016 12.803159 16.241030 49.582107 11.626063 0.000000 0.000000 0.000000 
0.000512 0.939796 -0.000209 2.952587 19.997833 8.775872 7.686189 -0.814104 -8.621651 -3.294789 0.159309 2.301670 23.750761 33.104901 38.457512 0.000000 0.000000 0.000000 -8.658379 -0.704546 -24.221946 2.579303 -0.900731 16.898532 8.702533 14.690549 10.390284 0.000000 0.000000 0.000000 12.890290 -8.948618 35.284162 -1.199476 1.260852 -20.376957 5.884224 2.314056 20.701758 14.725423 -9.474552 -10.439692 0.000000 0.000000 0.000000 3.845759 -18.571978 6.097331 -37.723853 -10.195314 -2.997462 -68.462707 -62.561342 44.015813 0.000000 0.000000 0.000000 20.033210 16.700532 11.606261 47.197487 49.371336 13.973969 16.435209 48.124139 11.213547 0.000000 0.000000 0.000000 
0.000549 0.938473 -0.000798 3.453809 20.300972 9.143487 7.195773 -0.823351 -8.796102 -3.319300 0.145422 2.889357 22.172538 32.450991 35.337418 0.000000 0.000000 0.000000 -8.918538 -0.794301 -24.249888 2.230926 -0.768261 16.234872 8.499106 14.238942 10.552931 0.000000 0.000000 0.000000 12.634962 -9.060372 35.788331 -0.804026 1.168598 -21.355578 5.807177 2.422050 21.698949 14.963372 -9.473366 -11.051985 0.000000 0.000000 0.000000 3.836938 -18.640474 6.116871 -36.751310 -10.535097 -2.892747 -71.758194 -62.334246 46.124938 0.000000 0.000000 0.000000 19.603394 17.637297 12.149320 46.125007 50.313954 13.955473 16.481896 47.682141 11.080124 0.000000 0.000000 0.000000 
0.000527 0.939007 -0.001570 3.517597 21.235609 9.193195 7.450102 -0.854063 -9.029342 -3.366626 0.123620 3.609008 19.591299 30.822339 32.440341 0.000000 0.000000 0.000000 -8.983843 -0.907688 -24.355421 1.947792 -0.743250 16.514136 8.616081 14.273961 10.962942 0.000000 0.000000 0.000000 12.943549 -9.480508 36.208899 -1.219286 1.280200 -21.537667 6.287948 2.413827 21.984419 14.790643 -9.192110 -11.449622 0.000000 0.000000 0.000000 3.717293 -18.787328 6.164938 -36.163850 -11.302015 -2.688699 -73.178024 -63.057474 47.672213 0.000000 0.000000 0.000000 18.634392 17.516566 11.872750 46.342968 51.009870 14.526961 16.856551 48.173200 11.406525 0.000000 0.000000 0.000000 
0.000628 0.938323 -0.002494 3.865470 21.525966 9.618915 7.156366 -0.900151 -9.772265 -3.566572 0.121134 4.190262 19.626660 30.948886 31.985423 0.000000 0.000000 0.000000 -9.384491 -1.093436 -24.924986 1.927324 -0.758208 16.667852 8.769066 14.282493 11.477668 0.000000 0.000000 0.000000 12.993514 -9.640726 36.427599 -1.394892 1.322355 -21.870800 6.338908 2.347488 22.536201 14.798141 -9.077633 -11.847380 0.000000 0.000000 0.000000 4.048074 -18.373530 6.050019 -36.096144 -11.897205 -2.597396 -74.425669 -63.385470 48.878261 0.000000 0.000000 0.000000 18.519468 18.007302 12.179001 46.401967 52.115381 15.089066 16.244661 47.420649 10.921669 0.000000 0.000000 0.000000 
0.000741 0.938350 -0.003335 3.954890 21.999735 10.042918 6.818331 -0.956097 -10.527293 -3.596929 0.112978 4.343625 20.658198 31.795284 32.205775 0.000000 0.000000 0.000000 -9.474352 -1.229992 -25.606807 1.723817 -0.756039 17.279260 8.840708 14.400061 11.502790 0.000000 0.000000 0.000000 13.281679 -9.919938 36.574681 -1.878163 1.431190 -22.517913 6.770978 2.756026 22.991548 15.285570 -9.321836 -12.129951 0.000000 0.000000 0.000000 3.663553 -18.744883 6.166037 -35.588890 -12.085346 -2.544002 -73.540549 -64.110025 48.529029 0.000000 0.000000 0.000000 18.692357 17.731735 12.265289 46.228619 52.688483 15.258124 16.948121 47.160796 11.247567 0.000000 0.000000 0.000000 
0.000907 0.938253 -0.003849 4.147684 22.562555 10.336815 6.532992 -1.001472 -11.037807 -3.632842 0.108265 4.353651 21.225689 32.232586 32.495699 0.000000 0.000000 0.000000 -9.735882 -1.404846 -26.000830 1.619021 -0.768926 17.561145 9.059104 14.577563 11.937345 0.000000 0.000000 0.000000 13.574486 -10.098277 36.404464 -1.964932 1.465745 -22.107014 6.660513 3.124425 22.593586 15.510162 -9.501774 -11.840361 0.000000 0.000000 0.000000 3.100232 -18.730198 6.162924 -34.809256 -12.560813 -2.328033 -70.777449 -64.976998 46.826041 0.000000 0.000000 0.000000 18.986897 17.952178 12.658552 45.820671 53.297955 15.381114 15.602462 46.333143 10.433873 0.000000 0.000000 0.000000 
0.001066 0.938308 -0.003966 4.340796 23.123596 10.455859 6.183821 -1.026501 -11.256826 -3.448358 0.089573 4.225574 21.575059 32.461094 32.847027 0.000000 0.000000 0.000000 -9.984922 -1.550704 -26.087776 1.622139 -0.813688 17.775401 9.042217 14.463135 12.124801 0.000000 0.000000 0.000000 13.824193 -10.305809 36.403186 -2.241018 1.536191 -22.363493 6.879095 3.419159 22.796076 16.021598 -9.604041 -12.572363 0.000000 0.000000 0.000000 2.731516 -18.966754 6.225616 -34.092872 -12.748459 -2.238852 -68.629673 -65.556657 45.379785 0.000000 0.000000 0.000000 18.487726 18.052606 12.712653 46.179912 53.713157 15.847949 14.412126 45.895417 9.817532 0.000000 0.000000 0.000000 
0.001310 0.938087 -0.003901 4.434475 23.402083 10.413567 5.856915 -1.028981 -11.243173 -3.065653 0.060439 4.046596 21.896703 32.629584 33.343235 0.000000 0.000000 0.000000 -10.059117 -1.616793 -26.169897 1.687220 -0.854109 17.860836 8.941637 13.970773 12.762840 0.000000 0.000000 0.000000 13.822152 -10.358423 36.438400 -2.329225 1.563640 -22.312500 7.076702 3.651247 22.587498 16.259219 -9.689166 -12.701445 0.000000 0.000000 0.000000 2.899821 -19.079412 6.255881 -33.929889 -13.046332 -2.148887 -67.444342 -66.136687 44.759874 0.000000 0.000000 0.000000 17.934234 18.262633 12.733473 46.874654 53.866449 16.404869 13.946428 45.536769 9.524991 0.000000 0.000000 0.000000 
0.001624 0.937863 -0.003849 4.252909 23.484852 10.048849 5.775285 -1.015427 -11.101814 -2.635519 0.012398 4.382590 21.850888 32.602623 33.173564 0.000000 0.000000 0.000000 -9.955149 -1.576115 -25.924838 1.784433 -0.902162 17.998487 8.926038 13.923628 12.801666 0.000000 0.000000 0.000000 13.891183 -10.459075 36.628688 -2.358735 1.576652 -22.244657 7.188548 3.945115 22.387821 16.318506 -9.615868 -12.893903 0.000000 0.000000 0.000000 3.508470 -18.491204 6.086202 -33.788197 -13.448431 -2.064216 -66.872723 -65.895524 43.926614 0.000000 0.000000 0.000000 17.228970 18.454066 12.671140 48.197330 53.912466 17.251951 13.068656 45.115882 9.046150 0.000000 0.000000 0.000000 
0.002080 0.937805 -0.003934 4.116006 23.328623 9.875516 5.615440 -1.020185 -11.209609 -2.211695 -0.043713 4.877538 21.960048 32.682149 33.253793 0.000000 0.000000 0.000000 -9.801198 -1.523479 -26.012621 1.661923 -0.883801 18.395040 9.020071 14.122771 12.700837 0.000000 0.000000 0.000000 13.826755 -10.407486 36.652580 -2.383570 1.578137 -22.186615 7.404167 4.277935 22.227909 16.331836 -9.309346 -13.649836 0.000000 0.000000 0.000000 4.434786 -18.460871 6.096374 -33.868279 -13.336081 -2.113452 -66.997541 -66.041859 43.940217 0.000000 0.000000 0.000000 16.723361 18.741387 12.712751 49.239318 53.942956 17.935395 12.521844 44.855139 8.743367 0.000000 0.000000 0.000000 
0.002646 0.937594 -0.004228 3.952271 23.044269 9.611349 5.620529 -1.022940 -11.326481 -2.080329 -0.084504 5.560421 22.210932 32.865029 33.398377 0.000000 0.000000 0.000000 -9.734764 -1.488421 -26.149373 1.723476 -0.915464 18.789155 9.284779 14.384605 13.051245 0.000000 0.000000 0.000000 13.760255 -10.463426 37.048031 -2.436501 1.580789 -22.442695 7.604364 4.650511 22.015555 16.037729 -8.991403 -13.789679 0.000000 0.000000 0.000000 5.383205 -18.159644 6.037077 -33.915339 -13.203956 -2.166795 -67.794007 -65.728389 44.127070 0.000000 0.000000 0.000000 16.488422 18.962909 12.786240 49.707803 53.799042 18.172243 12.330416 44.633825 8.600315 0.000000 0.000000 0.000000 
0.003317 0.937874 -0.004642 3.705259 22.784677 9.345069 5.736529 -1.008858 -11.235097 -2.005431 -0.101122 5.803600 22.411867 32.989134 33.579028 0.000000 0.000000 0.000000 -9.549184 -1.415288 -26.218446 1.710388 -0.921869 19.127211 9.476678 14.593926 13.267073 0.000000 0.000000 0.000000 13.804285 -10.530985 37.311236 -2.510877 1.593599 -22.354619 7.808857 4.875589 21.864682 15.840021 -8.796093 -13.846205 0.000000 0.000000 0.000000 6.343631 -17.832786 5.978081 -33.919737 -13.204515 -2.192244 -67.563156 -65.589026 43.729384 0.000000 0.000000 0.000000 16.199280 19.279499 12.859272 49.852285 54.051690 18.473548 12.581546 44.244017 8.577229 0.000000 0.000000 0.000000 
0.004014 0.938162 -0.005099 3.645913 22.596981 9.236001 5.872909 -0.998038 -11.156850 -2.279562 -0.073337 5.863993 22.570086 33.089497 33.712814 0.000000 0.000000 0.000000 -9.486032 -1.364815 -26.138969 1.526714 -0.853307 19.170944 9.643903 14.940559 13.152310 0.000000 0.000000 0.000000 13.747164 -10.427855 37.200494 -2.341520 1.553134 -22.188993 7.855829 4.948787 21.703121 15.522330 -8.692265 -13.417556 0.000000 0.000000 0.000000 6.998054 -17.718345 5.964048 -33.801271 -12.856748 -2.280666 -67.793012 -65.449781 43.742125 0.000000 0.000000 0.000000 16.521461 19.439699 13.034112 49.511824 53.903711 18.184623 12.962785 44.059883 8.655259 0.000000 0.000000 0.000000 
0.004688 0.938397 -0.005605 3.496157 22.482272 8.963663 6.004642 -0.973636 -10.898642 -2.375015 -0.060813 5.839799 22.670741 33.146215 33.744391 0.000000 0.000000 0.000000 -9.241310 -1.271891 -26.000774 1.297425 -0.782957 19.301259 9.624583 14.915529 13.132882 0.000000 0.000000 0.000000 13.717005 -10.459433 37.418441 -2.268468 1.536343 -22.259371 8.062576 4.963548 21.848319 15.530854 -8.801803 -13.192045 0.000000 0.000000 0.000000 7.393205 -17.382911 5.882822 -33.652838 -12.864095 -2.302736 -67.099160 -65.525464 43.274519 0.000000 0.000000 0.000000 16.606279 19.476022 13.044989 48.462467 54.161735 17.761431 14.315489 43.979161 9.161225 0.000000 0.000000 0.000000 
